<?xml version="1.0" ?>
<!DOCTYPE svg  PUBLIC '-//W3C//DTD SVG 1.1//EN'  'http://www.w3.org/Graphics/SVG/1.1/DTD/svg11.dtd'>
<!-- Uploaded to: SVG Repo, www.svgrepo.com, Generator: SVG Repo Mixer Tools -->
<svg width="800px" height="800px" viewBox="0 0 32 32" enable-background="new 0 0 32 32" version="1.1" xml:space="preserve" xmlns="http://www.w3.org/2000/svg" xmlns:xlink="http://www.w3.org/1999/xlink">
<g id="Layer_2"/>
<g id="Layer_3"/>
<g id="Layer_4"/>
<g id="Layer_5"/>
<g id="Layer_6"/>
<g id="Layer_7"/>
<g id="Layer_8"/>
<g id="Layer_9"/>
<g id="Layer_10"/>
<g id="Layer_11"/>
<g id="Layer_12"/>
<g id="Layer_13"/>
<g id="Layer_14"/>
<g id="Layer_15"/>
<g id="Layer_16"/>
<g id="Layer_17"/>
<g id="Layer_18"/>
<g id="Layer_19"/>
<g id="Maps_11_">
<g>
<g>
<polygon fill="#11A9F3" points="16.05,15.98 15.95,16.07 15.95,15.93    "/>
</g>
</g>
<g>
<polygon fill="#16BCD4" points="16.05,15.98 15.95,16.07 15.95,15.93   "/>
<path d="M30.45,1.11C30.11,0.94,29.7,0.97,29.4,1.2L22,6.75l-0.11,0.08L10.45,1.11C10.31,1.04,10.15,1,10,1H9.99    C9.94,1,9.9,1,9.86,1.01C9.81,1.02,9.77,1.02,9.73,1.04C9.68,1.05,9.64,1.07,9.59,1.09C9.55,1.11,9.52,1.13,9.48,1.15H9.47    C9.44,1.17,9.42,1.18,9.4,1.2l-8,6C1.15,7.39,1,7.69,1,8v22c0,0.38,0.21,0.73,0.55,0.89C1.69,30.97,1.85,31,2,31    c0.21,0,0.42-0.07,0.6-0.2l7.4-5.55v-0.13l0.11,0.05l11.44,5.72C21.69,30.97,21.85,31,22,31c0.09,0,0.18-0.01,0.27-0.04    c0.02,0,0.03-0.0099,0.04-0.0099c0.07-0.02,0.14-0.05,0.2-0.09c0.01,0,0.01-0.01,0.02-0.01c0.03-0.02,0.05-0.03,0.0699-0.05l8-6    c0.25-0.19,0.4-0.49,0.4-0.8V2C31,1.62,30.79,1.27,30.45,1.11z M15.95,15.93l0.1,0.05l-0.1,0.09V15.93z" fill="#16BCD4"/>
</g>
<path d="M21.89,6.83L10.45,1.11C10.31,1.04,10.15,1,10,1v12.04v2.01v10.07l0.11,0.05l11.44,5.72   C21.69,30.96,21.85,31,22,31v-9.94v-2.01V6.89L21.89,6.83z" fill="#2197F3"/>
<path d="M16.7,16.25c-2.01-1.94-4.27-3.04-6.7-3.25v2.01c1.92,0.22,3.69,1.11,5.3,2.68   c2.16,2.09,4.45,3.06,6.7,3.33v-2.01C20.21,18.72,18.4,17.9,16.7,16.25z M15.95,16.03v-0.14l0.1,0.05L15.95,16.03z" fill="#1971B6"/>
<path d="M10,13.04v2.01C9.61,15,9.21,14.99,8.81,15C5.73,15.1,2.88,16.85,1,18.31v-2.48   C3.04,14.45,5.75,13.12,8.73,13.01C9.16,13,9.58,13.01,10,13.04z" fill="#2197F3"/>
<polygon fill="#FFC10A" points="16.05,15.98 15.95,16.07 15.95,15.93  "/>
<path d="M31,16.75V19c-2.14,1.14-4.81,2.14-7.64,2.14c-0.45,0-0.91-0.03-1.36-0.08v-2.01   C25.37,19.58,28.67,18.17,31,16.75z" fill="#2197F3"/>
</g>
<g id="Maps_10_"/>
<g id="Maps_9_"/>
<g id="Maps_8_"/>
<g id="Maps_7_"/>
<g id="Maps_6_"/>
<g id="Maps_5_"/>
<g id="Maps_4_"/>
<g id="Maps_3_"/>
<g id="Maps_2_"/>
<g id="Maps_1_"/>
<g id="Maps"/>
</svg>